<?xml version="1.0"?><svg xmlns="http://www.w3.org/2000/svg" xmlns:xlink="http://www.w3.org/1999/xlink" version="1.2" width="100%" viewBox="0 0 373 373" xml:space="preserve" baseProfile="tiny-ps"><title>Company Name</title><path fill="#FEFEFE" stroke="none" d=" M0.999998,244.000000   C1.000000,163.041702 1.000000,82.083405 1.000000,1.062556   C125.227585,1.062556 249.455200,1.062556 374.000000,1.062556   C374.000000,78.687271 374.000000,156.374985 373.704773,234.351868   C368.590088,221.418304 362.778748,208.458160 359.191467,194.909180   C354.226471,176.156570 350.935059,156.960861 347.060455,137.625610   C350.856628,132.972122 350.790436,128.036346 345.868683,126.313591   C337.221924,123.287018 328.137024,121.337631 319.090088,119.785042   C317.400665,119.495110 313.500305,123.075897 313.364136,125.058777   C313.198914,127.465218 315.690063,130.285706 317.546661,132.494385   C318.382233,133.488403 320.465302,133.433762 322.200806,133.915573   C314.431091,150.287399 308.811371,167.260178 297.144348,181.291748   C293.952637,184.040848 291.383301,187.145233 288.231110,189.453873   C280.640991,195.012894 272.858490,200.321167 265.006409,205.507751   C252.842941,213.542175 240.596695,221.453415 228.305969,229.292084   C222.221893,233.172318 215.960144,236.773972 209.414795,240.662384   C204.143631,242.412781 199.122864,243.722626 194.356094,245.658096   C187.332993,248.509750 180.267242,250.312943 172.573349,250.079239   C162.599274,249.776260 152.593765,250.421997 142.625168,250.043533   C126.968842,249.449142 111.940720,247.071838 100.310173,234.710388   C89.523560,223.245850 79.127342,211.395172 73.882088,196.437653   C68.735420,181.761246 65.052246,166.558762 61.043762,151.502777   C59.562599,145.939468 58.984684,140.135681 57.933079,134.086456   C61.268330,133.871048 64.566818,134.247833 67.437996,133.312668   C70.532051,132.304901 72.759613,129.690353 71.985901,125.928749   C71.164154,121.933617 68.376282,119.688576 64.450172,120.064919   C53.912224,121.075012 43.386665,122.306847 32.912231,123.834808   C29.444193,124.340706 27.705433,126.993103 27.871784,130.792480   C28.041330,134.664902 30.207251,136.690445 33.663319,137.111908   C36.429752,137.449249 39.294037,136.984222 42.110077,137.310822   C39.041428,153.507446 36.343292,169.351273 32.801350,185.004181   C29.814795,198.202621 23.827024,210.313339 16.541010,221.674454   C11.649619,229.301605 6.199903,236.570694 0.999998,244.000000  M224.818863,111.853134   C223.567886,112.255974 221.607040,112.304749 221.196930,113.126984   C219.883453,115.760338 218.469482,118.640823 218.303177,121.496338   C217.667953,132.402115 217.420380,143.334137 217.254257,154.259796   C217.227692,156.006271 218.293625,159.234863 218.964066,159.264069   C221.417908,159.370987 225.035782,159.236343 226.170700,157.691040   C228.618683,154.357925 230.686508,150.226120 231.286591,146.180344   C232.129654,140.496384 231.874207,134.562210 231.392273,128.793198   C230.894928,122.839676 232.703262,115.807724 224.818863,111.853134  M118.884758,112.266640   C115.311241,125.042366 117.220718,138.035355 117.403595,150.953705   C117.452301,154.393875 119.812889,155.025314 122.653076,154.391769   C127.838089,153.235184 129.473145,148.987671 129.621887,144.633896   C129.984833,134.009872 129.848953,123.361984 129.640366,112.729065   C129.571289,109.208084 128.686630,104.997299 124.640549,104.465958   C120.179955,103.880180 120.315414,108.607063 118.884758,112.266640  M115.317963,82.814995   C109.865952,84.810036 105.167747,87.631760 102.746178,95.375259   C105.328644,94.466690 107.134483,94.198578 108.485504,93.269257   C110.471565,91.903114 111.893036,89.161278 113.980171,88.607338   C119.024277,87.268593 124.327530,86.267136 129.498703,86.381187   C131.395508,86.423019 133.147034,90.063354 135.109772,91.907967   C135.706223,92.468513 136.787704,92.512978 137.647034,92.793816   C138.024841,91.630028 138.879425,90.384544 138.696457,89.316856   C137.973907,85.100487 133.049469,81.173195 128.435730,81.328011   C124.311440,81.466400 120.205940,82.164948 115.317963,82.814995  M232.482590,99.785858   C233.851959,100.957024 235.136124,102.253418 236.616760,103.261086   C237.879379,104.120369 239.367920,104.647659 240.756546,105.321808   C240.480011,103.583183 240.818680,101.282951 239.827240,100.196945   C233.321243,93.070221 224.517227,89.387802 215.067123,95.346764   C213.769180,96.165215 212.909546,97.678749 211.846985,98.870491   C213.739548,98.971588 216.052887,99.822495 217.449005,99.038979   C222.459915,96.226776 227.106201,95.978767 232.482590,99.785858  M162.901093,178.469986   C160.243027,182.797455 157.515579,187.084778 154.971939,191.478485   C154.268402,192.693741 154.111649,194.225540 153.704025,195.612106   C155.153885,195.300568 157.333237,195.481766 157.931976,194.595337   C161.154587,189.824432 164.076126,184.838943 166.864792,179.796555   C167.362762,178.896133 166.748962,177.380859 166.648514,176.149475   C165.464157,176.700790 164.279785,177.252106 162.901093,178.469986  z"/><path fill="#FEFEFF" stroke="none" d=" M374.000000,266.000000   C374.000000,301.973480 374.000000,337.946960 374.000000,373.960205   C249.784790,373.960205 125.569580,373.960205 1.000000,373.960205   C1.000000,336.646515 1.000000,299.291931 1.300860,261.595093   C2.965460,260.719879 4.526905,260.448334 5.650760,259.598236   C7.824934,257.953766 9.752517,255.983215 11.811543,254.551086   C12.229845,262.765198 8.890077,271.118103 15.487369,278.138428   C16.362675,270.423309 16.433849,262.743103 16.303688,255.066360   C16.277090,253.497665 15.494905,251.941788 15.240283,250.020996   C19.976980,242.739151 24.534414,235.816330 29.153814,229.361496   C28.960867,233.966904 29.392618,238.290787 28.328678,242.208496   C24.345955,256.873871 24.441116,271.806030 24.796318,286.757294   C24.845013,288.806915 26.599241,290.816010 27.478352,292.664185   C29.359455,275.610382 31.323479,259.225067 32.908276,242.803162   C33.636806,235.254013 33.621731,227.633102 34.104973,219.727875   C36.501045,214.519547 38.735996,209.628082 40.970947,204.736603   C41.273319,204.790298 41.575687,204.843994 41.878059,204.897690   C41.878059,206.463486 41.878120,208.029266 41.878052,209.595047   C41.876949,234.752701 41.874401,259.910339 41.875488,285.067993   C41.875870,293.870209 41.878975,293.864929 33.637207,295.380066   C33.414497,295.421021 33.269001,295.881927 32.275848,297.332428   C39.262161,303.079865 46.340340,308.902893 54.013863,315.215698   C54.861835,312.157806 55.283234,310.638184 55.771713,308.876678   C57.648746,308.876678 59.300503,308.876709 60.952259,308.876678   C142.256454,308.876160 223.560638,308.875610 304.864838,308.875061   C305.031433,308.875061 305.201660,308.897766 305.364136,308.871887   C309.601440,308.197113 311.604126,309.650696 311.016663,314.255157   C310.674011,316.941223 310.954285,319.706757 310.954285,322.436554   C311.503510,322.728668 312.052734,323.020782 312.601959,323.312897   C317.289001,319.194946 321.769165,314.805206 326.721405,311.035583   C331.650085,307.283875 337.052795,304.154877 342.247681,300.752838   C341.976715,300.271210 341.705780,299.789551 341.434845,299.307922   C340.494415,299.191437 339.554016,299.074982 338.678192,298.558594   C339.840149,292.496765 341.819183,286.845215 341.885773,281.171234   C342.214722,253.141815 342.015869,225.106445 342.077850,197.073334   C342.083130,194.690994 342.637573,192.309860 343.241943,190.159302   C344.278198,193.430420 344.809387,196.535706 345.776276,199.498825   C349.415833,210.652588 353.197266,221.760086 356.606384,233.107391   C356.035400,236.452469 355.583130,239.573975 355.566193,242.697830   C355.488312,257.075043 355.531860,271.452911 355.531860,286.011322   C358.241028,284.683594 360.340424,282.679565 360.274292,278.498810   C360.082428,266.369232 360.171631,254.235229 360.491455,242.117401   C364.650543,247.370483 368.495117,252.590347 372.249390,257.874329   C372.664001,258.457855 372.538269,259.413300 372.705261,260.187134   C373.123962,262.127563 373.566833,264.062714 374.000000,266.000000  z"/><path fill="#8EC3EB" stroke="none" d=" M29.091846,228.893509   C24.534414,235.816330 19.976980,242.739151 14.943883,249.961624   C13.572910,251.556778 12.677603,252.852295 11.782299,254.147812   C9.752517,255.983215 7.824934,257.953766 5.650760,259.598236   C4.526905,260.448334 2.965460,260.719879 1.300860,261.126404   C1.000000,255.645065 1.000000,250.290146 0.999998,244.467606   C6.199903,236.570694 11.649619,229.301605 16.541010,221.674454   C23.827024,210.313339 29.814795,198.202621 32.801350,185.004181   C36.343292,169.351273 39.041428,153.507446 42.505844,137.202301   C44.119625,141.527756 45.293167,146.407578 46.553368,151.264908   C50.483452,166.413055 54.446327,181.552719 58.043137,196.717712   C57.094364,196.298157 56.498947,195.856537 55.543724,195.148041   C55.355087,196.293930 55.165478,196.909286 55.165138,197.524719   C55.148056,228.502914 55.214504,259.481415 55.071144,290.458954   C55.049889,295.052765 57.582256,294.999512 60.838177,294.998169   C142.280975,294.964386 223.723846,294.934692 305.166443,295.066895   C309.876801,295.074524 311.111908,293.564331 311.061890,289.047516   C310.953430,279.246490 310.617035,269.337799 311.840698,259.658569   C313.584717,245.862991 316.722961,232.247406 319.120789,218.529617   C321.461609,205.137848 323.676025,191.723145 325.822113,178.298721   C326.391144,174.739273 326.504395,171.106979 326.826904,167.508133   C325.179443,167.970184 324.703644,168.696442 324.036469,169.124405   C323.407318,169.527985 322.576721,169.617569 321.779053,169.472488   C326.493958,158.320206 331.264587,147.540726 335.506927,137.954895   C340.078339,137.954895 343.502655,137.954895 346.926971,137.954895   C350.935059,156.960861 354.226471,176.156570 359.191467,194.909180   C362.778748,208.458160 368.590088,221.418304 373.704773,234.820526   C374.000000,245.020889 374.000000,255.041794 374.000000,265.531342   C373.566833,264.062714 373.123962,262.127563 372.705261,260.187134   C372.538269,259.413300 372.664001,258.457855 372.249390,257.874329   C368.495117,252.590347 364.650543,247.370483 360.381775,241.728363   C358.929291,238.511566 357.927429,235.698242 356.925568,232.884918   C353.197266,221.760086 349.415833,210.652588 345.776276,199.498825   C344.809387,196.535706 344.278198,193.430420 343.269836,189.747101   C342.492584,186.145966 341.992401,183.188141 341.492249,180.230301   C340.911011,180.128052 340.329803,180.025787 339.748566,179.923538   C339.042786,182.681381 338.128510,185.406525 337.689331,188.206177   C337.241516,191.060822 337.260742,193.988739 336.764465,197.164368   C334.992981,206.589355 334.043274,215.852188 331.968964,224.855942   C327.219391,245.472321 323.882660,266.164001 324.787903,287.430542   C325.199158,297.091766 324.858154,297.106293 334.971436,298.051636   C336.411591,298.409363 337.512604,298.683929 338.613586,298.958496   C339.554016,299.074982 340.494415,299.191437 341.434845,299.307922   C341.705780,299.789551 341.976715,300.271210 342.247681,300.752838   C337.052795,304.154877 331.650085,307.283875 326.721405,311.035583   C321.769165,314.805206 317.289001,319.194946 312.601959,323.312897   C312.052734,323.020782 311.503510,322.728668 310.954285,322.436554   C310.954285,319.706757 310.674011,316.941223 311.016663,314.255157   C311.604126,309.650696 309.601440,308.197113 305.364136,308.871887   C305.201660,308.897766 305.031433,308.875061 304.864838,308.875061   C223.560638,308.875610 142.256454,308.876160 60.952259,308.876678   C59.300503,308.876709 57.648746,308.876678 55.771713,308.876678   C55.283234,310.638184 54.861835,312.157806 54.013863,315.215698   C46.340340,308.902893 39.262161,303.079865 32.275848,297.332428   C33.269001,295.881927 33.414497,295.421021 33.637207,295.380066   C41.878975,293.864929 41.875870,293.870209 41.875488,285.067993   C41.874401,259.910339 41.876949,234.752701 41.878052,209.595047   C41.878120,208.029266 41.878059,206.463486 41.878059,204.897690   C41.575687,204.843994 41.273319,204.790298 40.970947,204.736603   C38.735996,209.628082 36.501045,214.519547 33.761009,219.763336   C31.867901,223.041611 30.479874,225.967560 29.091846,228.893509  z"/><path fill="#080808" stroke="none" d=" M58.396484,196.695663   C54.446327,181.552719 50.483452,166.413055 46.553368,151.264908   C45.293167,146.407578 44.119625,141.527756 42.510662,136.766769   C39.294037,136.984222 36.429752,137.449249 33.663319,137.111908   C30.207251,136.690445 28.041330,134.664902 27.871784,130.792480   C27.705433,126.993103 29.444193,124.340706 32.912231,123.834808   C43.386665,122.306847 53.912224,121.075012 64.450172,120.064919   C68.376282,119.688576 71.164154,121.933617 71.985901,125.928749   C72.759613,129.690353 70.532051,132.304901 67.437996,133.312668   C64.566818,134.247833 61.268330,133.871048 57.933079,134.086456   C58.984684,140.135681 59.562599,145.939468 61.043762,151.502777   C65.052246,166.558762 68.735420,181.761246 73.882088,196.437653   C79.127342,211.395172 89.523560,223.245850 100.310173,234.710388   C111.940720,247.071838 126.968842,249.449142 142.625168,250.043533   C152.593765,250.421997 162.599274,249.776260 172.573349,250.079239   C180.267242,250.312943 187.332993,248.509750 194.356094,245.658096   C199.122864,243.722626 204.143631,242.412781 209.810944,240.743744   C218.954987,239.970840 224.977402,234.792007 231.677170,230.393784   C246.109970,220.918930 261.123779,212.324188 275.962708,203.474670   C285.155060,197.992599 292.505493,190.801392 297.501678,181.285156   C308.811371,167.260178 314.431091,150.287399 322.200806,133.915573   C320.465302,133.433762 318.382233,133.488403 317.546661,132.494385   C315.690063,130.285706 313.198914,127.465218 313.364136,125.058777   C313.500305,123.075897 317.400665,119.495110 319.090088,119.785042   C328.137024,121.337631 337.221924,123.287018 345.868683,126.313591   C350.790436,128.036346 350.856628,132.972122 347.060455,137.625610   C343.502655,137.954895 340.078339,137.954895 335.506927,137.954895   C331.264587,147.540726 326.493958,158.320206 321.791687,169.478088   C321.859985,169.856476 321.862701,169.875320 321.559998,169.975128   C321.083466,170.665894 320.909668,171.256836 320.795654,171.868347   C320.855438,171.888916 320.790985,171.780121 320.500549,171.838120   C320.114716,172.256699 320.019287,172.617264 319.958069,172.985474   C319.992218,172.993103 319.958801,172.931595 319.646332,173.018860   C319.113403,173.697021 318.892975,174.287918 318.446960,175.124573   C306.689178,197.239395 289.579407,213.225235 267.805756,224.853653   C256.135590,231.086212 245.458496,239.151932 234.039093,245.892044   C228.688156,249.050369 222.748184,251.323975 216.878738,253.458405   C211.134064,255.547470 204.996765,256.574036 199.289444,258.744446   C191.302475,261.781769 183.392838,264.279022 174.647278,264.002502   C163.168228,263.639557 151.641708,264.406250 140.186539,263.769897   C129.488129,263.175568 118.574593,262.699890 108.729897,257.514526   C104.771454,255.429535 100.943611,253.096634 96.926117,250.574081   C84.514603,239.886002 75.688217,226.619751 66.241928,213.443390   C63.769363,208.088745 61.416805,203.060989 59.093216,197.753891   C58.879208,197.223572 58.636227,196.972595 58.377148,196.719055   C58.361053,196.716461 58.396484,196.695663 58.396484,196.695663  z"/><path fill="#0C0C0C" stroke="none" d=" M225.125244,112.026093   C232.703262,115.807724 230.894928,122.839676 231.392273,128.793198   C231.874207,134.562210 232.129654,140.496384 231.286591,146.180344   C230.686508,150.226120 228.618683,154.357925 226.170700,157.691040   C225.035782,159.236343 221.417908,159.370987 218.964066,159.264069   C218.293625,159.234863 217.227692,156.006271 217.254257,154.259796   C217.420380,143.334137 217.667953,132.402115 218.303177,121.496338   C218.469482,118.640823 219.883453,115.760338 221.196930,113.126984   C221.607040,112.304749 223.567886,112.255974 225.125244,112.026093  z"/><path fill="#0C0C0C" stroke="none" d=" M118.962517,111.873749   C120.315414,108.607063 120.179955,103.880180 124.640549,104.465958   C128.686630,104.997299 129.571289,109.208084 129.640366,112.729065   C129.848953,123.361984 129.984833,134.009872 129.621887,144.633896   C129.473145,148.987671 127.838089,153.235184 122.653076,154.391769   C119.812889,155.025314 117.452301,154.393875 117.403595,150.953705   C117.220718,138.035355 115.311241,125.042366 118.962517,111.873749  z"/><path fill="#8CBCDE" stroke="none" d=" M297.144348,181.291748   C292.505493,190.801392 285.155060,197.992599 275.962708,203.474670   C261.123779,212.324188 246.109970,220.918930 231.677170,230.393784   C224.977402,234.792007 218.954987,239.970840 210.174927,240.583008   C215.960144,236.773972 222.221893,233.172318 228.305969,229.292084   C240.596695,221.453415 252.842941,213.542175 265.006409,205.507751   C272.858490,200.321167 280.640991,195.012894 288.231110,189.453873   C291.383301,187.145233 293.952637,184.040848 297.144348,181.291748  z"/><path fill="#212121" stroke="none" d=" M115.705063,82.715660   C120.205940,82.164948 124.311440,81.466400 128.435730,81.328011   C133.049469,81.173195 137.973907,85.100487 138.696457,89.316856   C138.879425,90.384544 138.024841,91.630028 137.647034,92.793816   C136.787704,92.512978 135.706223,92.468513 135.109772,91.907967   C133.147034,90.063354 131.395508,86.423019 129.498703,86.381187   C124.327530,86.267136 119.024277,87.268593 113.980171,88.607338   C111.893036,89.161278 110.471565,91.903114 108.485504,93.269257   C107.134483,94.198578 105.328644,94.466690 102.746178,95.375259   C105.167747,87.631760 109.865952,84.810036 115.705063,82.715660  z"/><path fill="#1D1D1D" stroke="none" d=" M232.145721,99.604675   C227.106201,95.978767 222.459915,96.226776 217.449005,99.038979   C216.052887,99.822495 213.739548,98.971588 211.846985,98.870483   C212.909546,97.678749 213.769180,96.165215 215.067123,95.346764   C224.517227,89.387802 233.321243,93.070221 239.827240,100.196945   C240.818680,101.282951 240.480011,103.583183 240.756531,105.321808   C239.367920,104.647659 237.879379,104.120369 236.616760,103.261086   C235.136124,102.253418 233.851959,100.957024 232.145721,99.604675  z"/><path fill="#242424" stroke="none" d=" M162.998260,178.136703   C164.279785,177.252106 165.464157,176.700790 166.648514,176.149475   C166.748962,177.380859 167.362762,178.896133 166.864792,179.796555   C164.076126,184.838943 161.154587,189.824432 157.931976,194.595337   C157.333237,195.481766 155.153885,195.300568 153.704025,195.612106   C154.111649,194.225540 154.268402,192.693741 154.971939,191.478485   C157.515579,187.084778 160.243027,182.797455 162.998260,178.136703  z"/><path fill="#18A3DB" stroke="none" d=" M337.075470,196.884567   C337.260742,193.988739 337.241516,191.060822 337.689331,188.206177   C338.128510,185.406525 339.042786,182.681381 339.748566,179.923538   C340.329803,180.025787 340.911011,180.128052 341.492249,180.230301   C341.992401,183.188141 342.492584,186.145966 342.964844,189.515991   C342.637573,192.309860 342.083130,194.690994 342.077850,197.073334   C342.015869,225.106445 342.214722,253.141815 341.885773,281.171234   C341.819183,286.845215 339.840149,292.496765 338.678192,298.558594   C337.512604,298.683929 336.411591,298.409363 335.018921,297.617920   C335.121429,294.825867 335.565613,292.557983 335.900421,290.274109   C336.906158,283.413879 338.591583,276.560272 338.713867,269.680969   C339.086090,248.741989 338.925903,227.791565 338.769165,206.847122   C338.744293,203.522232 337.666473,200.205215 337.075470,196.884567  z"/><path fill="#1DA5DC" stroke="none" d=" M29.153812,229.361496   C30.479874,225.967560 31.867901,223.041611 33.599892,220.080200   C33.621731,227.633102 33.636806,235.254013 32.908276,242.803162   C31.323479,259.225067 29.359455,275.610382 27.478352,292.664185   C26.599241,290.816010 24.845013,288.806915 24.796318,286.757294   C24.441116,271.806030 24.345955,256.873871 28.328678,242.208496   C29.392618,238.290787 28.960867,233.966904 29.153812,229.361496  z"/><path fill="#11A0DA" stroke="none" d=" M356.606384,233.107391   C357.927429,235.698242 358.929291,238.511566 360.040833,241.713928   C360.171631,254.235229 360.082428,266.369232 360.274292,278.498810   C360.340424,282.679565 358.241028,284.683594 355.531860,286.011322   C355.531860,271.452911 355.488312,257.075043 355.566193,242.697830   C355.583130,239.573975 356.035400,236.452469 356.606384,233.107391  z"/><path fill="#1BA4DC" stroke="none" d=" M11.811539,254.551086   C12.677603,252.852295 13.572910,251.556778 14.764619,250.320648   C15.494905,251.941788 16.277090,253.497665 16.303688,255.066360   C16.433849,262.743103 16.362675,270.423309 15.487369,278.138428   C8.890077,271.118103 12.229845,262.765198 11.811539,254.551086  z"/><path fill="#FDFDFE" stroke="none" d=" M97.056328,250.876556   C100.943611,253.096634 104.771454,255.429535 108.729897,257.514526   C118.574593,262.699890 129.488129,263.175568 140.186539,263.769897   C151.641708,264.406250 163.168228,263.639557 174.647278,264.002502   C183.392838,264.279022 191.302475,261.781769 199.289444,258.744446   C204.996765,256.574036 211.134064,255.547470 216.878738,253.458405   C222.748184,251.323975 228.688156,249.050369 234.039093,245.892044   C245.458496,239.151932 256.135590,231.086212 267.805756,224.853653   C289.579407,213.225235 306.689178,197.239395 318.776428,175.040802   C319.540527,174.118042 319.749664,173.524811 319.958801,172.931595   C319.958801,172.931595 319.992218,172.993103 320.261353,172.932587   C320.617310,172.508087 320.704163,172.144104 320.791016,171.780121   C320.790985,171.780121 320.855438,171.888916 321.150055,171.824463   C321.584015,171.131760 321.723358,170.503540 321.862701,169.875320   C321.862701,169.875320 321.859985,169.856476 321.847351,169.850876   C322.576721,169.617569 323.407318,169.527985 324.036469,169.124405   C324.703644,168.696442 325.179443,167.970184 326.826904,167.508133   C326.504395,171.106979 326.391144,174.739273 325.822113,178.298721   C323.676025,191.723145 321.461609,205.137848 319.120789,218.529617   C316.722961,232.247406 313.584717,245.862991 311.840698,259.658569   C310.617035,269.337799 310.953430,279.246490 311.061890,289.047516   C311.111908,293.564331 309.876801,295.074524 305.166443,295.066895   C223.723846,294.934692 142.280975,294.964386 60.838177,294.998169   C57.582256,294.999512 55.049889,295.052765 55.071144,290.458954   C55.214504,259.481415 55.148056,228.502914 55.165138,197.524719   C55.165478,196.909286 55.355087,196.293930 55.543724,195.148041   C56.498947,195.856537 57.094364,196.298157 58.043137,196.717712   C58.396484,196.695663 58.361053,196.716461 58.260628,197.006073   C58.461555,197.541550 58.762905,197.787399 59.064247,198.033249   C61.416805,203.060989 63.769363,208.088745 66.149109,213.814484   C71.469452,223.175171 76.490654,232.021027 82.155846,240.433182   C85.660469,245.637192 90.478645,249.698486 97.056328,250.876556  z"/><path fill="#FCFDFE" stroke="none" d=" M336.764465,197.164368   C337.666473,200.205215 338.744293,203.522232 338.769165,206.847122   C338.925903,227.791565 339.086090,248.741989 338.713867,269.680969   C338.591583,276.560272 336.906158,283.413879 335.900421,290.274109   C335.565613,292.557983 335.121429,294.825867 334.679779,297.534760   C324.858154,297.106293 325.199158,297.091766 324.787903,287.430542   C323.882660,266.164001 327.219391,245.472321 331.968964,224.855942   C334.043274,215.852188 334.992981,206.589355 336.764465,197.164368  z"/><path fill="#8BBADC" stroke="none" d=" M96.926117,250.574081   C90.478645,249.698486 85.660469,245.637192 82.155846,240.433182   C76.490654,232.021027 71.469452,223.175171 66.269112,214.141388   C75.688217,226.619751 84.514603,239.886002 96.926117,250.574081  z"/><path fill="#8EC3EB" stroke="none" d=" M319.646332,173.018860   C319.749664,173.524811 319.540527,174.118042 319.001953,174.795044   C318.892975,174.287918 319.113403,173.697021 319.646332,173.018860  z"/><path fill="#8EC3EB" stroke="none" d=" M321.559998,169.975128   C321.723358,170.503540 321.584015,171.131760 321.090271,171.803894   C320.909668,171.256836 321.083466,170.665894 321.559998,169.975128  z"/><path fill="#8EC3EB" stroke="none" d=" M59.093220,197.753891   C58.762905,197.787399 58.461555,197.541550 58.276726,197.008667   C58.636227,196.972595 58.879208,197.223572 59.093220,197.753891  z"/><path fill="#8EC3EB" stroke="none" d=" M320.500580,171.838120   C320.704163,172.144104 320.617310,172.508087 320.227173,172.924957   C320.019287,172.617264 320.114716,172.256699 320.500580,171.838120  z"/></svg>
